<?xml version="1.0" encoding="UTF-8"?><svg xmlns="http://www.w3.org/2000/svg" width="1408" height="768" viewBox="0 0 1408 768">
  
  
  
  
  
  
  
  
  
  
  
  
<g data-color-group="#ffffff" id="white"><path id="10" d="M 0,768 C 0,512 0,256 0,0 C 469.333,0 938.667,0 1408,0 C 1408,256 1408,512 1408,768 C 938.667,768 469.333,768 0,768 ZM 932.565,198.432 C 924.784,168.444 901.212,145.055 871.614,137.959 C 863.750,136.074 858.543,136.014 702.500,136.014 C 546.457,136.014 541.250,136.074 533.386,137.959 C 517.151,141.852 504.709,149.255 492.208,162.461 C 485.838,169.190 483.197,172.984 479.159,181.199 C 469.675,200.495 470.586,180.082 470.245,381 C 469.974,540.778 470.104,559.299 471.550,566.500 C 477.588,596.575 499.685,620.626 530.035,630.156 C 532.523,630.937 535.012,631.719 537.500,632.500 C 592.500,632.500 647.500,632.500 702.500,632.500 C 887.871,632.500 871.804,633.151 888.500,624.957 C 909.318,614.740 925.872,595.072 932.652,572.500 C 934.356,566.829 934.467,556.665 934.686,387 C 934.763,327.167 934.841,267.333 934.918,207.500 C 934.134,204.477 933.349,201.455 932.565,198.432 Z" fill="#FFFFFF" stroke="none" style="display:none"/><path id="10" d="M 483,209 C 490.392,178.076 507.779,158.655 535.500,150.354 C 541.141,148.665 550.830,148.537 697.500,148.229 C 810.312,147.992 855.715,148.215 861.500,149.038 C 884.353,152.287 904.416,166.825 914.578,187.500 C 922.469,203.555 921.966,190.108 922.013,385.745 C 922.054,556.292 922.007,560.685 920.089,568.169 C 914.124,591.440 895.064,610.937 871.649,617.719 C 867.317,618.974 862.025,620 859.887,620 C 858.591,620 857.296,620 856,620 C 842.300,619.917 828.600,619.833 814.900,619.750 C 801.200,619.667 787.499,619.583 773.799,619.500 C 776.544,617.867 779.289,616.235 782.034,614.602 C 794.224,607.351 808.049,595.784 821,582 C 847.508,547.118 858,513.831 858,464.612 C 858,436.255 855.048,423.946 842.997,402.047 C 823.405,366.444 819.598,351.480 821.897,319.118 C 826.093,260.053 817.593,228.465 790.340,201.841 C 774.159,186.033 756.927,178.600 731.500,176.461 C 708.043,174.488 678.244,183.446 663.777,196.821 C 660.325,200.012 654.809,204.120 651.520,205.950 C 634.034,215.677 622.153,229.137 616.900,245.172 C 614.866,251.381 614.508,254.408 614.556,265 C 614.605,275.778 614.980,278.602 617.278,285.500 C 618.744,289.900 621.613,296.165 623.655,299.421 C 624.892,301.395 626.131,303.367 627.368,305.341 C 628.799,303.760 630.231,302.179 631.662,300.598 C 633.093,299.017 634.525,297.436 635.956,295.855 C 634.960,293.881 633.963,291.909 632.967,289.935 C 628.805,281.691 627,273.963 627,264.395 C 627,249.670 633.099,236.325 644.324,226.490 C 646.049,224.978 647.775,223.468 649.500,221.956 C 649.598,223.723 649.695,225.489 649.793,227.256 C 650.014,231.241 649.446,234.004 647.505,238.394 C 641.683,251.559 640.655,263.988 643.973,281.105 C 646.569,294.497 645.826,297.884 636.537,315 C 634.597,318.575 633.008,322.703 633.005,324.173 C 632.998,328.212 637.160,332.343 644.294,335.375 C 646.431,336.283 648.567,337.191 650.704,338.099 C 652.125,343.166 653.547,348.233 654.968,353.300 C 660.111,371.635 662.412,376.052 668.302,378.904 C 676.721,382.980 692.254,381.179 706.832,374.439 C 709.388,373.257 711.944,372.076 714.500,370.894 C 714.612,373.274 714.724,375.655 714.836,378.035 C 714.948,380.415 715.059,382.796 715.171,385.176 C 717.309,384.804 719.448,384.431 721.586,384.059 C 723.724,383.687 725.862,383.313 728,382.941 C 728,381.728 728,380.516 728,379.303 C 728,377.302 727.502,372.809 726.895,369.321 C 726.527,367.207 726.159,365.092 725.791,362.978 C 727.849,360.778 729.906,358.579 731.964,356.379 C 735.359,352.749 738.886,348.211 739.801,346.292 C 740.355,345.129 740.910,343.967 741.464,342.804 C 740.381,341.837 739.299,340.869 738.216,339.902 C 734.080,336.206 732.657,336.254 729.258,340.205 C 714.284,357.611 701.141,365.768 684.159,368.197 C 673.267,369.755 673.209,369.686 666.571,347.632 C 663.613,337.805 660.587,329.210 659.846,328.533 C 659.105,327.856 655.889,326.271 652.698,325.013 C 650.764,324.250 648.830,323.489 646.896,322.726 C 648.097,320.440 649.300,318.153 650.501,315.867 C 658.080,301.444 659.527,292.465 656.440,279 C 655.452,274.690 655.068,268.878 655.300,261.750 C 655.650,251.004 656.611,248.657 658.746,253.342 C 660.298,256.747 670.409,267.396 675.961,271.471 C 683.852,277.264 693.956,281.684 711.687,287.101 C 747.356,297.998 750.877,301.955 753.975,334.618 C 755.858,354.471 760.240,364.485 771.750,375.231 C 774.167,377.487 776.583,379.744 779,382 C 778.305,383.003 777.611,384.006 776.916,385.009 C 775.770,386.664 771.945,390.079 768.416,392.597 C 761.880,397.261 760.916,398.856 763.392,400.911 C 764.158,401.547 765.338,403.401 766.014,405.033 C 766.690,406.665 767.719,408 768.302,408 C 770.456,408 783.730,396.889 791,389 C 803.013,393.814 809.618,396.837 813.428,398.823 C 820.724,402.626 833.670,413.676 830.358,413.274 C 829.336,413.150 825.688,412.579 822.250,412.005 C 806.291,409.340 785.942,417.822 773.710,432.238 C 764.956,442.555 759.545,452.473 746.972,481.250 C 742.691,491.048 737.256,502.443 734.894,506.571 C 729.886,515.324 718.427,530 716.601,530 C 715.909,530 714.252,527.645 712.921,524.767 C 706.592,511.086 692.956,493.911 680.646,484.116 C 671.199,476.599 656.294,468.298 645.640,464.620 C 643.906,464.021 643.960,463.742 646.441,460.489 C 650.931,454.603 652.159,450.429 651.997,441.608 C 651.915,437.148 652.165,431.372 652.552,428.770 C 653.396,423.098 651.869,420.206 646.113,416.572 C 642.766,414.459 642.196,413.535 641.637,409.325 C 640.191,398.430 630.755,385.482 620.427,380.221 C 606.447,373.100 588.298,373.255 573.763,380.620 C 566.010,384.549 556.582,394.112 552.584,402.104 C 541.077,425.104 548.512,450.685 571.188,466.119 C 574.316,468.248 577.116,470.379 577.409,470.853 C 577.702,471.327 577.489,473.242 576.936,475.108 C 570.333,497.379 569.854,520.882 575.595,540.759 C 580.306,557.069 586.901,568.236 599.272,580.850 C 614.341,596.215 636.292,607.157 661.039,611.641 C 673.971,613.984 700.305,613.994 712.210,611.659 C 759.713,602.343 800.109,568.699 825.144,517.605 C 831.120,505.409 831.238,505.012 829.628,502.555 C 827.739,499.672 823.448,498.235 821.095,499.696 C 820.218,500.241 818.451,502.894 817.170,505.593 C 789.243,564.417 745.623,598.082 694,600.654 C 646.356,603.027 607.065,582.599 591.475,547.347 C 590.055,544.137 588.580,539.992 588.197,538.137 C 587.522,534.870 587.720,534.992 594.500,541.997 C 611.993,560.071 632.096,568.163 659.363,568.106 C 690.198,568.042 719.811,551.318 739.810,522.673 C 746.200,513.521 751.212,504.034 757.338,489.500 C 774.064,449.814 782.973,436.565 798,429.033 C 817.610,419.203 837.447,425.434 843.716,443.391 C 846.947,452.647 845.733,486.496 841.381,508.500 C 837.881,526.194 829.401,547.471 820.237,561.553 C 818.070,564.882 816.006,568.145 815.649,568.803 C 815.433,569.202 815.216,569.601 815,570 C 811.909,573.083 808.819,576.167 805.728,579.250 C 790.377,594.564 771.982,607.112 754.149,614.436 C 749.392,616.390 744.938,618.441 743,620 C 521.949,619.967 536.572,620.405 522.386,613.406 C 504.155,604.411 489.982,586.981 484.972,567.391 C 483.046,559.861 483,555.577 483,384.340 C 483,325.893 483,267.447 483,209 ZM 663.737,412.027 C 661.383,418.697 661.614,428.421 664.281,434.851 C 666.937,441.255 673.234,448.387 694.245,468.788 C 707.772,481.922 710.257,483.933 711.882,483.063 C 712.922,482.506 722.532,473.376 733.236,462.775 C 755.622,440.604 758.225,436.712 758.830,424.500 C 759.319,414.634 756.562,407.589 749.847,401.552 C 739.655,392.388 725.588,391.720 714.343,399.866 C 713.015,400.828 711.687,401.791 710.359,402.753 C 709.063,401.786 707.766,400.820 706.470,399.853 C 702.221,396.685 694.436,394 689.500,394 C 687.775,394 683.965,394.713 681.034,395.583 C 674.321,397.577 666.068,405.422 663.737,412.027 Z" fill="#FFFFFF" stroke="none" style="display:none"/><path id="10" d="M 664.838,215.500 C 670.474,203.746 689.317,193.315 711.063,189.912 C 720.300,188.466 739.299,189.321 747.500,191.551 C 779.552,200.266 801.946,227.223 808.600,265.100 C 810.018,273.171 810.134,278.246 809.420,301 C 807.916,348.952 809.175,360.959 817.734,380.271 C 819.141,383.445 820.072,386.261 819.803,386.530 C 818.704,387.629 789.413,373.864 784.189,369.794 C 773.990,361.848 768.545,351.091 766.833,335.500 C 763.967,309.405 760.311,299.015 751.103,290.808 C 745.212,285.557 733.177,279.919 720.639,276.537 C 697.582,270.317 686.775,264.989 676.855,254.951 C 667.953,245.943 663.788,237.364 663.284,227 C 662.998,221.120 663.334,218.636 664.838,215.500 Z" fill="#FFFFFF" stroke="none" style="display:none"/><path id="10" d="M 590,478 C 590,465.769 588.153,461.776 580.131,456.665 C 572.246,451.641 566.582,445.529 563.301,438.500 C 560.856,433.262 560.510,431.357 560.577,423.500 C 560.671,412.495 562.716,407.295 569.966,399.629 C 583.651,385.159 606.193,383.572 620.434,396.076 C 625.722,400.719 627.926,405.050 629.470,413.830 C 630.841,421.627 630.982,421.892 635.404,424.934 C 639.535,427.776 639.839,428.260 638.851,430.428 C 638.110,432.055 638.068,434.552 638.720,438.336 C 640.018,445.869 639.292,449.554 635.826,453.020 C 632.707,456.139 624.809,459 619.318,459 C 615.417,459 612,461.946 612,465.309 C 612,469.584 614.054,470.912 622.459,472.069 C 648.870,475.705 674.851,491.290 690.017,512.595 C 692.012,515.397 694.006,518.198 696,521 C 694.917,520.507 693.833,520.014 692.750,519.521 C 690.963,518.708 685.637,516.041 680.917,513.595 C 668.950,507.394 654.306,502.754 635,499.046 C 605.079,493.299 600.293,491.060 590,478 Z" fill="#FFFFFF" stroke="none" style="display:none"/><path id="10" d="M 698,545 C 678.507,554.781 663.591,557.523 645.782,554.601 C 640.437,553.724 633.075,551.881 629.421,550.506 C 609.644,543.062 592.630,524.177 589.101,505.750 C 588.734,503.833 588.367,501.917 588,500 C 588,499.330 588,498.660 588,497.990 C 588,496.163 588.479,496.297 593.250,499.461 C 600.518,504.280 607.440,506.473 630,511.105 C 657.198,516.689 671.010,521.592 684,530.273 C 691.246,535.115 698,542.221 698,545 Z" fill="#FFFFFF" stroke="none" style="display:none"/><path id="10" d="M 743.730,413.898 C 746.454,417.975 746.767,425.228 744.459,430.753 C 742.868,434.560 712.552,466 710.472,466 C 708.505,466 679.354,435.643 677.141,431.290 C 671.738,420.664 677.018,408.746 687.768,407.304 C 693.714,406.506 699.806,409.767 705.037,416.548 C 707.350,419.546 709.815,422 710.514,422 C 711.213,422 713.417,419.862 715.412,417.250 C 720.115,411.091 724.937,407.863 730.239,407.324 C 735.583,406.781 740.613,409.232 743.730,413.898 Z" fill="#FFFFFF" stroke="none" style="display:none"/></g><g data-color-group="#593a6d" id="deep-indigo"><path id="4" d="M 932.565,198.432 C 933.349,201.455 934.134,204.477 934.918,207.500 C 934.841,267.333 934.763,327.167 934.686,387 C 934.467,556.665 934.356,566.829 932.652,572.500 C 925.872,595.072 909.318,614.740 888.500,624.957 C 871.804,633.151 887.871,632.500 702.500,632.500 C 647.500,632.500 592.500,632.500 537.500,632.500 C 535.012,631.719 532.523,630.937 530.035,630.156 C 499.685,620.626 477.588,596.575 471.550,566.500 C 470.104,559.299 469.974,540.778 470.245,381 C 470.586,180.082 469.675,200.495 479.159,181.199 C 483.197,172.984 485.838,169.190 492.208,162.461 C 504.709,149.255 517.151,141.852 533.386,137.959 C 541.250,136.074 546.457,136.014 702.500,136.014 C 858.543,136.014 863.750,136.074 871.614,137.959 C 901.212,145.055 924.784,168.444 932.565,198.432 ZM 856,620 C 857.296,620 858.591,620 859.887,620 C 862.025,620 867.317,618.974 871.649,617.719 C 895.064,610.937 914.124,591.440 920.089,568.169 C 922.007,560.685 922.054,556.292 922.013,385.745 C 921.966,190.108 922.469,203.555 914.578,187.500 C 904.416,166.825 884.353,152.287 861.500,149.038 C 855.715,148.215 810.312,147.992 697.500,148.229 C 550.830,148.537 541.141,148.665 535.500,150.354 C 507.779,158.655 490.392,178.076 483,209 C 483,267.447 483,325.893 483,384.340 C 483,555.577 483.046,559.861 484.972,567.391 C 489.982,586.981 504.155,604.411 522.386,613.406 C 536.572,620.405 521.949,619.967 743,620 C 780.667,620 818.333,620 856,620 Z" fill="#593A6D" stroke="none"/><path id="4" d="M 821,582 C 820.486,582.386 819.972,582.772 819.458,583.158 C 818.538,583.848 817.563,583.949 817.042,583.408 C 816.562,582.909 815.906,579.688 815,570 C 815.216,569.601 815.433,569.202 815.649,568.803 C 816.006,568.145 818.070,564.882 820.237,561.553 C 829.401,547.471 837.881,526.194 841.381,508.500 C 845.733,486.496 846.947,452.647 843.716,443.391 C 837.447,425.434 817.610,419.203 798,429.033 C 782.973,436.565 774.064,449.814 757.338,489.500 C 751.212,504.034 746.200,513.521 739.810,522.673 C 719.811,551.318 690.198,568.042 659.363,568.106 C 632.096,568.163 611.993,560.071 594.500,541.997 C 587.720,534.992 587.522,534.870 588.197,538.137 C 588.580,539.992 590.055,544.137 591.475,547.347 C 607.065,582.599 646.356,603.027 694,600.654 C 745.623,598.082 789.243,564.417 817.170,505.593 C 818.451,502.894 820.218,500.241 821.095,499.696 C 823.448,498.235 827.739,499.672 829.628,502.555 C 831.238,505.012 831.120,505.409 825.144,517.605 C 800.109,568.699 759.713,602.343 712.210,611.659 C 700.305,613.994 673.971,613.984 661.039,611.641 C 636.292,607.157 614.341,596.215 599.272,580.850 C 586.901,568.236 580.306,557.069 575.595,540.759 C 569.854,520.882 570.333,497.379 576.936,475.108 C 577.489,473.242 577.702,471.327 577.409,470.853 C 577.116,470.379 574.316,468.248 571.188,466.119 C 548.512,450.685 541.077,425.104 552.584,402.104 C 556.582,394.112 566.010,384.549 573.763,380.620 C 588.298,373.255 606.447,373.100 620.427,380.221 C 630.755,385.482 640.191,398.430 641.637,409.325 C 642.196,413.535 642.766,414.459 646.113,416.572 C 651.869,420.206 653.396,423.098 652.552,428.770 C 652.165,431.372 651.915,437.148 651.997,441.608 C 652.159,450.429 650.931,454.603 646.441,460.489 C 643.960,463.742 643.906,464.021 645.640,464.620 C 656.294,468.298 671.199,476.599 680.646,484.116 C 692.956,493.911 706.592,511.086 712.921,524.767 C 714.252,527.645 715.909,530 716.601,530 C 718.427,530 729.886,515.324 734.894,506.571 C 737.256,502.443 742.691,491.048 746.972,481.250 C 759.545,452.473 764.956,442.555 773.710,432.238 C 785.942,417.822 806.291,409.340 822.250,412.005 C 825.688,412.579 829.336,413.150 830.358,413.274 C 833.670,413.676 820.724,402.626 813.428,398.823 C 809.618,396.837 803.013,393.814 791,389 C 790.583,388.778 790.167,388.557 789.750,388.335 C 789.062,387.969 786.362,386.394 779,382 C 776.583,379.744 774.167,377.487 771.750,375.231 C 760.240,364.485 755.858,354.471 753.975,334.618 C 750.877,301.955 747.356,297.998 711.687,287.101 C 693.956,281.684 683.852,277.264 675.961,271.471 C 670.409,267.396 660.298,256.747 658.746,253.342 C 656.611,248.657 655.650,251.004 655.300,261.750 C 655.068,268.878 655.452,274.690 656.440,279 C 659.527,292.465 658.080,301.444 650.501,315.867 C 649.300,318.153 648.097,320.440 646.896,322.726 C 648.830,323.489 650.764,324.250 652.698,325.013 C 655.889,326.271 659.105,327.856 659.846,328.533 C 660.587,329.210 663.613,337.805 666.571,347.632 C 673.209,369.686 673.267,369.755 684.159,368.197 C 701.141,365.768 714.284,357.611 729.258,340.205 C 732.657,336.254 734.080,336.206 738.216,339.902 C 739.299,340.869 740.381,341.837 741.464,342.804 C 740.910,343.967 740.355,345.129 739.801,346.292 C 738.886,348.211 735.359,352.749 731.964,356.379 C 729.906,358.579 727.849,360.778 725.791,362.978 C 726.159,365.092 726.527,367.207 726.895,369.321 C 727.502,372.809 728,377.302 728,379.303 C 728,380.516 728,381.728 728,382.941 C 725.862,383.313 723.724,383.687 721.586,384.059 C 719.448,384.431 717.309,384.804 715.171,385.176 C 715.059,382.796 714.948,380.415 714.836,378.035 C 714.724,375.655 714.612,373.274 714.500,370.894 C 711.944,372.076 709.388,373.257 706.832,374.439 C 692.254,381.179 676.721,382.980 668.302,378.904 C 662.412,376.052 660.111,371.635 654.968,353.300 C 653.547,348.233 652.125,343.166 650.704,338.099 C 648.567,337.191 646.431,336.283 644.294,335.375 C 637.160,332.343 632.998,328.212 633.005,324.173 C 633.008,322.703 634.597,318.575 636.537,315 C 645.826,297.884 646.569,294.497 643.973,281.105 C 640.655,263.988 641.683,251.559 647.505,238.394 C 649.446,234.004 650.014,231.241 649.793,227.256 C 649.695,225.489 649.598,223.723 649.500,221.956 C 647.775,223.468 646.049,224.978 644.324,226.490 C 633.099,236.325 627,249.670 627,264.395 C 627,273.963 628.805,281.691 632.967,289.935 C 633.963,291.909 634.960,293.881 635.956,295.855 C 634.525,297.436 633.093,299.017 631.662,300.598 C 630.231,302.179 628.799,303.760 627.368,305.341 C 626.131,303.367 624.892,301.395 623.655,299.421 C 621.613,296.165 618.744,289.900 617.278,285.500 C 614.980,278.602 614.605,275.778 614.556,265 C 614.508,254.408 614.866,251.381 616.900,245.172 C 622.153,229.137 634.034,215.677 651.520,205.950 C 654.809,204.120 660.325,200.012 663.777,196.821 C 678.244,183.446 708.043,174.488 731.500,176.461 C 756.927,178.600 774.159,186.033 790.340,201.841 C 817.593,228.465 826.093,260.053 821.897,319.118 C 819.598,351.480 823.405,366.444 842.997,402.047 C 855.048,423.946 858,436.255 858,464.612 C 858,513.831 847.508,547.118 821,582 ZM 590,478 C 589.636,478.917 589.272,479.833 588.908,480.750 C 588.307,482.263 587.857,487.212 588,500 C 588.367,501.917 588.734,503.833 589.101,505.750 C 592.630,524.177 609.644,543.062 629.421,550.506 C 633.075,551.881 640.437,553.724 645.782,554.601 C 663.591,557.523 678.507,554.781 698,545 C 699.364,544.014 700.729,543.027 702.093,542.041 C 703.457,541.055 704.822,540.068 706.186,539.082 C 702.791,533.055 699.396,527.027 696,521 C 694.006,518.198 692.012,515.397 690.017,512.595 C 674.851,491.290 648.870,475.705 622.459,472.069 C 614.054,470.912 612,469.584 612,465.309 C 612,461.946 615.417,459 619.318,459 C 624.809,459 632.707,456.139 635.826,453.020 C 639.292,449.554 640.018,445.869 638.720,438.336 C 638.068,434.552 638.110,432.055 638.851,430.428 C 639.839,428.260 639.535,427.776 635.404,424.934 C 630.982,421.892 630.841,421.627 629.470,413.830 C 627.926,405.050 625.722,400.719 620.434,396.076 C 606.193,383.572 583.651,385.159 569.966,399.629 C 562.716,407.295 560.671,412.495 560.577,423.500 C 560.510,431.357 560.856,433.262 563.301,438.500 C 566.582,445.529 572.246,451.641 580.131,456.665 C 588.153,461.776 590,465.769 590,478 ZM 664.838,215.500 C 663.334,218.636 662.998,221.120 663.284,227 C 663.788,237.364 667.953,245.943 676.855,254.951 C 686.775,264.989 697.582,270.317 720.639,276.537 C 733.177,279.919 745.212,285.557 751.103,290.808 C 760.311,299.015 763.967,309.405 766.833,335.500 C 768.545,351.091 773.990,361.848 784.189,369.794 C 789.413,373.864 818.704,387.629 819.803,386.530 C 820.072,386.261 819.141,383.445 817.734,380.271 C 809.175,360.959 807.916,348.952 809.420,301 C 810.134,278.246 810.018,273.171 808.600,265.100 C 801.946,227.223 779.552,200.266 747.500,191.551 C 739.299,189.321 720.300,188.466 711.063,189.912 C 689.317,193.315 670.474,203.746 664.838,215.500 Z" fill="#593A6D" stroke="none"/></g><g data-color-group="#e0b58b" id="light-orange"><path id="12" d="M 663.737,412.027 C 666.068,405.422 674.321,397.577 681.034,395.583 C 683.965,394.713 687.775,394 689.500,394 C 694.436,394 702.221,396.685 706.470,399.853 C 707.766,400.820 709.063,401.786 710.359,402.753 C 711.687,401.791 713.015,400.828 714.343,399.866 C 725.588,391.720 739.655,392.388 749.847,401.552 C 756.562,407.589 759.319,414.634 758.830,424.500 C 758.225,436.712 755.622,440.604 733.236,462.775 C 722.532,473.376 712.922,482.506 711.882,483.063 C 710.257,483.933 707.772,481.922 694.245,468.788 C 673.234,448.387 666.937,441.255 664.281,434.851 C 661.614,428.421 661.383,418.697 663.737,412.027 ZM 743.730,413.898 C 740.613,409.232 735.583,406.781 730.239,407.324 C 724.937,407.863 720.115,411.091 715.412,417.250 C 713.417,419.862 711.213,422 710.514,422 C 709.815,422 707.350,419.546 705.037,416.548 C 699.806,409.767 693.714,406.506 687.768,407.304 C 677.018,408.746 671.738,420.664 677.141,431.290 C 679.354,435.643 708.505,466 710.472,466 C 712.552,466 742.868,434.560 744.459,430.753 C 746.767,425.228 746.454,417.975 743.730,413.898 Z" fill="#E0B58B" stroke="none"/><path id="12" d="M 588,500 C 587.857,487.212 588.307,482.263 588.908,480.750 C 589.272,479.833 589.636,478.917 590,478 C 600.293,491.060 605.079,493.299 635,499.046 C 654.306,502.754 668.950,507.394 680.917,513.595 C 685.637,516.041 690.963,518.708 692.750,519.521 C 693.833,520.014 694.917,520.507 696,521 C 699.396,527.027 702.791,533.055 706.186,539.082 C 704.822,540.068 703.457,541.055 702.093,542.041 C 700.729,543.027 699.364,544.014 698,545 C 698,542.221 691.246,535.115 684,530.273 C 671.010,521.592 657.198,516.689 630,511.105 C 607.440,506.473 600.518,504.280 593.250,499.461 C 588.479,496.297 588,496.163 588,497.990 C 588,498.660 588,499.330 588,500 Z" fill="#E0B58B" stroke="none"/><path id="12" d="M 815,570 C 815.906,579.688 816.562,582.909 817.042,583.408 C 817.563,583.949 818.538,583.848 819.458,583.158 C 819.972,582.772 820.486,582.386 821,582 C 808.049,595.784 794.224,607.351 782.034,614.602 C 779.289,616.235 776.544,617.867 773.799,619.500 C 787.499,619.583 801.200,619.667 814.900,619.750 C 828.600,619.833 842.300,619.917 856,620 C 818.333,620 780.667,620 743,620 C 744.938,618.441 749.392,616.390 754.149,614.436 C 771.982,607.112 790.377,594.564 805.728,579.250 C 808.819,576.167 811.909,573.083 815,570 Z" fill="#E0B58B" stroke="none"/><path id="12" d="M 779,382 C 786.362,386.394 789.062,387.969 789.750,388.335 C 790.167,388.557 790.583,388.778 791,389 C 783.730,396.889 770.456,408 768.302,408 C 767.719,408 766.690,406.665 766.014,405.033 C 765.338,403.401 764.158,401.547 763.392,400.911 C 760.916,398.856 761.880,397.261 768.416,392.597 C 771.945,390.079 775.770,386.664 776.916,385.009 C 777.611,384.006 778.305,383.003 779,382 Z" fill="#E0B58B" stroke="none"/></g></svg>