<?xml version="1.0" standalone="no"?>
<!DOCTYPE svg PUBLIC "-//W3C//DTD SVG 20010904//EN"
 "http://www.w3.org/TR/2001/REC-SVG-20010904/DTD/svg10.dtd">
<svg version="1.0" xmlns="http://www.w3.org/2000/svg"
 width="600.000000pt" height="336.000000pt" viewBox="0 0 600.000000 336.000000"
 preserveAspectRatio="xMidYMid meet">
<g transform="translate(0.000000,336.000000) scale(0.100000,-0.100000)"
fill="#000000" stroke="none">
<path d="M3055 1790 c0 -866 1 -1221 2 -788 2 434 2 1142 0 1575 -1 434 -2 79
-2 -787z"/>
<path d="M4720 3097 c-164 -45 -282 -117 -407 -247 -43 -44 -52 -60 -34 -60 5
0 12 -10 14 -22 l4 -23 2 23 c0 13 5 21 10 18 5 -4 7 2 4 12 -5 19 38 72 58
72 7 0 10 3 6 6 -9 9 61 66 73 59 5 -3 10 1 10 9 0 9 6 15 13 14 6 -2 11 2 10
8 -1 7 6 10 20 7 18 -4 19 -3 7 6 -13 9 -13 11 2 11 10 0 38 12 63 26 26 14
53 23 60 20 9 -3 12 0 8 10 -3 8 -2 14 3 13 5 -1 11 -1 14 1 23 8 59 7 54 -2
-4 -7 -2 -8 5 -4 6 4 8 12 5 18 -4 7 5 8 27 3 23 -4 30 -3 20 3 -10 7 6 12 55
17 38 4 74 7 79 8 35 4 194 -16 189 -24 -3 -5 0 -8 8 -7 7 2 12 -2 11 -8 -1
-8 6 -10 19 -6 21 5 21 6 2 13 -34 14 1 9 54 -6 28 -9 57 -21 64 -28 7 -7 36
-21 63 -33 28 -11 49 -26 47 -33 -1 -7 2 -10 7 -7 11 7 105 -54 96 -62 -3 -4
-11 0 -16 8 -9 13 -10 13 -6 0 2 -8 15 -15 28 -15 15 0 28 -8 34 -23 5 -12 17
-24 25 -27 9 -3 29 -25 44 -50 16 -24 33 -42 37 -39 5 3 9 2 10 -3 3 -30 10
-47 33 -74 14 -17 23 -36 20 -41 -4 -7 -2 -8 4 -4 8 5 12 -1 12 -14 0 -13 4
-19 12 -14 7 4 8 3 4 -5 -9 -14 12 -81 25 -81 6 0 8 -9 4 -19 -3 -11 -1 -22 5
-26 5 -3 10 -19 10 -35 0 -16 5 -32 10 -35 6 -3 10 -12 10 -18 0 -7 -4 -6 -10
3 -8 13 -10 12 -10 -2 0 -10 5 -18 11 -18 6 0 8 -9 4 -20 -4 -12 -2 -20 5 -20
6 0 9 -3 7 -7 -2 -5 -2 -45 2 -89 4 -54 3 -80 -4 -78 -6 3 -9 -12 -7 -38 2
-24 -4 -74 -13 -113 -9 -38 -17 -80 -17 -92 0 -14 -4 -20 -11 -16 -7 4 -8 -5
-4 -28 6 -30 5 -32 -7 -16 -13 16 -14 16 -20 -9 -4 -14 -5 -29 -1 -32 3 -3 5
3 5 13 0 10 3 15 7 12 3 -4 -1 -22 -10 -39 -9 -18 -24 -54 -33 -80 -9 -27 -20
-48 -25 -48 -5 0 -5 -8 -2 -17 5 -12 2 -15 -9 -10 -12 4 -15 0 -11 -16 4 -20
3 -20 -11 3 -17 28 -22 20 -6 -10 11 -20 -5 -70 -22 -70 -4 0 -8 -7 -8 -15 0
-8 -8 -15 -17 -15 -13 0 -14 -3 -5 -8 9 -6 7 -13 -8 -30 -11 -11 -20 -26 -20
-32 0 -6 -5 -8 -11 -4 -8 4 -9 0 -4 -15 4 -15 2 -21 -9 -21 -8 0 -18 -10 -22
-22 -10 -32 -67 -107 -81 -108 -7 0 -10 -6 -8 -12 2 -7 -2 -22 -11 -33 -13
-17 -16 -18 -25 -5 -8 12 -9 11 -7 -5 3 -24 -59 -115 -76 -111 -6 2 -8 1 -3
-1 14 -8 -3 -22 -19 -16 -13 5 -15 1 -9 -17 6 -18 4 -22 -8 -17 -9 3 -21 -2
-29 -11 -12 -15 -11 -16 5 -3 9 7 17 10 17 5 -1 -14 -37 -54 -49 -54 -6 0 -11
-6 -11 -14 0 -8 -9 -21 -21 -29 -25 -18 -83 -96 -76 -103 7 -7 126 118 200
211 9 11 41 52 72 90 30 39 59 75 64 81 51 63 193 290 239 382 172 345 205
629 105 922 -30 89 -120 243 -135 233 -7 -4 -9 0 -5 9 4 11 -19 40 -71 90
-117 113 -179 150 -355 214 -63 23 -91 27 -222 30 -134 4 -159 2 -235 -19z"/>
<path d="M4790 3037 c0 -5 -4 -6 -9 -3 -5 4 -11 2 -13 -3 -1 -5 -17 -11 -34
-14 -17 -3 -41 -10 -53 -17 -13 -6 -29 -9 -36 -6 -10 3 -12 0 -8 -11 5 -12 1
-14 -17 -8 -15 5 -20 4 -16 -4 4 -6 1 -11 -6 -11 -18 0 -115 -65 -160 -107
-22 -22 -41 -32 -49 -28 -8 5 -10 4 -5 -4 5 -7 -1 -20 -13 -30 -12 -10 -21
-23 -21 -30 0 -6 -4 -11 -8 -11 -7 0 -42 -63 -42 -75 0 -3 5 -5 10 -5 6 0 10
7 10 15 0 8 4 15 9 15 5 0 12 8 15 18 9 26 104 124 166 168 61 45 146 88 224
112 77 24 332 24 406 -1 82 -28 118 -45 195 -95 331 -212 444 -649 278 -1071
-97 -246 -251 -485 -496 -766 -52 -60 -91 -112 -85 -114 9 -3 33 21 111 113
23 27 48 54 55 62 6 7 12 17 12 23 0 6 4 11 9 11 5 0 37 38 72 85 45 62 65 82
72 73 6 -9 7 -8 3 5 -3 11 2 27 14 39 10 11 26 36 35 54 9 18 22 37 29 41 8 4
22 26 33 48 11 22 24 39 30 38 6 -1 11 8 11 20 0 12 17 51 36 87 27 48 35 57
31 35 -4 -24 -3 -26 4 -10 5 11 7 30 4 43 -5 20 10 32 20 15 2 -5 2 -2 1 5 -2
7 3 32 11 55 8 23 15 51 15 62 0 17 2 18 11 5 8 -11 9 -8 4 13 -3 18 -2 26 4
22 6 -3 10 6 9 22 0 15 8 51 20 80 11 28 18 54 15 57 -3 3 -2 13 2 23 9 22 13
253 4 247 -6 -3 -20 82 -23 139 -1 18 -5 26 -14 22 -10 -3 -10 0 -1 16 13 24
3 40 -12 19 -9 -13 -10 -12 -6 1 3 9 -1 27 -10 38 -8 12 -12 25 -8 29 4 4 10
1 12 -6 3 -6 9 -10 14 -7 13 9 -14 33 -30 27 -10 -4 -12 1 -7 16 5 15 1 24
-14 32 -11 6 -20 21 -20 33 0 18 -2 19 -11 7 -9 -12 -10 -10 -6 8 4 18 2 22
-9 18 -8 -3 -14 1 -14 8 0 7 -9 25 -20 38 -10 14 -16 29 -12 32 4 4 1 6 -7 4
-8 -2 -14 6 -16 20 -1 12 -10 29 -21 36 -28 21 -31 10 -3 -13 13 -11 21 -22
17 -26 -6 -6 -50 27 -94 73 -12 12 -25 22 -30 22 -5 0 -21 11 -36 25 -15 14
-31 24 -35 23 -4 -1 -23 6 -42 16 -72 38 -220 68 -343 70 -65 0 -118 -3 -118
-7z"/>
<path d="M5090 3041 c0 -8 52 -22 58 -16 2 1 -11 7 -27 13 -17 6 -31 7 -31 3z"/>
<path d="M3770 3006 c-160 -36 -275 -140 -330 -301 -19 -56 -20 -84 -20 -912
0 -661 3 -854 12 -851 7 3 17 26 24 52 10 38 10 47 0 43 -9 -4 -13 11 -14 51
l-1 57 24 -50 c13 -27 24 -63 24 -79 1 -40 45 -176 80 -251 24 -50 30 -57 36
-40 3 11 12 31 18 45 l11 25 3 -25 c9 -66 26 -147 36 -165 9 -17 13 -8 23 55
23 142 24 142 -62 233 -92 98 -124 147 -161 241 -25 63 -28 84 -28 181 1 99 3
115 28 166 36 71 87 124 156 158 46 23 71 29 138 30 48 1 84 -2 88 -8 3 -6 14
-11 24 -11 10 0 44 -13 77 -29 32 -16 70 -32 84 -36 24 -7 24 -6 -5 16 -16 13
-32 23 -35 23 -3 -1 -16 6 -30 16 -14 9 -42 20 -62 24 -21 4 -38 11 -38 16 0
6 -15 10 -32 10 -26 0 -30 3 -18 11 12 8 11 9 -5 5 -11 -3 -49 -10 -85 -15
-72 -10 -105 -23 -170 -65 -40 -25 -100 -101 -100 -127 0 -5 -4 -9 -10 -9 -7
0 -9 196 -6 573 2 314 5 580 6 589 5 51 62 160 107 203 79 76 90 83 169 112
94 34 287 20 333 -25 12 -12 12 -15 0 -23 -8 -5 -9 -9 -4 -9 6 0 16 5 23 12 9
9 15 9 25 -1 7 -9 7 -11 1 -8 -7 4 -15 0 -18 -8 -4 -13 -2 -14 14 -5 25 13 50
-7 51 -42 0 -20 1 -21 8 -5 6 17 8 17 20 3 7 -8 10 -20 6 -25 -4 -7 1 -8 11
-4 14 5 16 3 11 -11 -4 -10 -1 -19 7 -22 12 -5 27 -45 30 -79 1 -5 7 -14 14
-18 14 -9 15 -91 2 -122 l-9 -20 -1 20 c-1 11 -4 15 -6 8 -3 -7 0 -21 6 -32 6
-13 7 -21 1 -21 -5 0 -10 -8 -10 -17 0 -25 -6 -51 -14 -59 -14 -14 -6 -63 18
-118 23 -53 24 -56 6 -56 -11 0 -21 6 -24 13 -5 14 -56 -92 -57 -118 0 -3 -9
-15 -20 -27 -13 -14 -18 -29 -14 -41 4 -12 2 -17 -4 -13 -5 3 -13 -1 -16 -10
-4 -10 -2 -13 6 -8 7 4 8 3 4 -4 -6 -11 -98 -8 -115 3 -4 2 -21 -3 -38 -11
-25 -12 -32 -23 -37 -57 -5 -31 -9 -38 -16 -27 -6 9 -10 10 -10 3 0 -6 4 -15
10 -18 5 -3 8 -16 6 -28 -3 -12 -5 -37 -5 -56 -1 -32 -2 -33 -39 -29 -40 3
-45 -3 -37 -47 4 -21 25 -32 108 -60 69 -23 80 -16 71 42 -3 27 -11 54 -16 61
-18 22 7 37 58 35 37 -1 53 -7 67 -25 10 -13 16 -16 12 -8 -4 8 0 6 9 -4 8
-10 13 -23 10 -27 -3 -5 1 -9 9 -9 8 0 22 -9 32 -20 11 -13 14 -20 6 -20 -8 0
-7 -5 3 -16 9 -8 20 -13 25 -10 9 6 26 -22 23 -36 -1 -5 4 -7 11 -5 6 1 11 -4
9 -11 -1 -8 2 -11 8 -7 5 3 10 0 10 -9 0 -8 9 -25 20 -38 11 -12 36 -43 56
-68 20 -25 44 -49 53 -54 9 -5 18 -12 21 -16 3 -3 22 -11 44 -17 35 -11 40
-10 65 15 14 14 25 29 25 32 -1 3 1 11 3 18 3 7 -14 33 -37 58 -23 25 -39 51
-36 59 3 9 0 12 -10 8 -8 -3 -14 -2 -12 3 4 18 -14 54 -24 48 -7 -5 -9 2 -6
19 3 15 2 24 -3 22 -4 -3 -10 -1 -13 4 -3 5 2 12 11 15 10 4 20 1 25 -9 10
-17 60 -45 82 -45 9 0 32 33 56 83 22 45 38 74 35 63 -6 -20 10 -46 29 -46 6
0 3 5 -7 11 -12 7 -15 17 -11 37 14 62 15 64 30 51 12 -10 13 -9 9 3 -7 18 38
68 60 68 7 0 20 7 29 15 8 8 30 17 48 20 44 5 149 -15 141 -28 -3 -5 0 -8 8
-5 17 6 60 -32 52 -45 -3 -6 -1 -7 4 -4 6 4 16 0 23 -8 11 -13 10 -15 -6 -10
-13 4 -12 2 3 -6 16 -8 26 -28 34 -68 7 -31 12 -58 12 -61 -1 -3 -4 -23 -7
-45 -3 -22 -12 -56 -20 -75 -8 -19 -17 -43 -20 -53 -4 -11 -11 -15 -18 -11 -7
5 -9 2 -5 -8 7 -20 -37 -63 -54 -53 -8 5 -10 4 -5 -3 4 -7 1 -12 -9 -12 -10 0
-13 5 -9 12 4 7 3 8 -5 4 -8 -6 -9 -12 -2 -20 8 -9 7 -13 -2 -14 -27 -3 -98
-20 -103 -25 -7 -7 19 -117 28 -117 3 0 5 -11 2 -25 -2 -14 0 -25 5 -25 10 0
27 -39 23 -54 -2 -4 1 -13 6 -20 14 -17 21 -55 12 -61 -4 -3 -19 4 -33 15 -14
11 -30 20 -35 20 -5 0 -12 7 -16 15 -3 8 -12 15 -21 15 -8 0 -15 4 -15 8 0 5
-6 9 -14 9 -14 0 -108 62 -114 76 -2 4 -8 7 -13 7 -6 0 -7 -4 -4 -10 3 -5 0
-7 -9 -4 -8 3 -12 12 -10 19 4 10 -1 12 -18 8 -22 -5 -22 -5 -4 9 18 14 17 15
-12 10 -33 -4 -45 13 -17 24 16 6 11 24 -6 24 -6 0 -8 -4 -5 -9 9 -15 -17 -19
-44 -7 -38 16 -70 42 -62 51 4 5 2 5 -5 2 -6 -4 -39 9 -73 28 -34 19 -66 35
-72 35 -6 0 -8 7 -5 14 4 10 1 13 -8 10 -7 -3 -26 2 -42 11 -15 9 -19 13 -8
10 11 -3 16 -3 12 2 -5 4 -25 8 -45 10 l-37 2 25 -19 c14 -11 72 -45 130 -76
58 -31 155 -86 215 -122 199 -119 339 -205 374 -228 19 -13 37 -22 38 -20 6 5
-44 177 -77 268 -17 45 -30 83 -30 85 0 2 15 3 33 3 75 1 159 67 199 156 95
216 -21 418 -239 415 -70 0 -129 -33 -184 -104 -44 -55 -109 -176 -109 -202 0
-11 -16 -4 -53 25 -30 22 -64 40 -77 40 -21 0 -22 -3 -17 -40 6 -49 65 -147
115 -191 l37 -33 -29 -29 c-22 -21 -35 -27 -55 -22 -32 7 -68 37 -101 85 -37
54 -215 273 -240 295 -17 16 -40 21 -103 24 -75 3 -80 2 -72 -15 4 -11 12 -39
17 -64 5 -25 13 -52 18 -61 12 -23 0 -32 -19 -16 -9 7 -42 21 -73 31 -40 13
-55 23 -51 33 3 8 12 12 20 9 44 -17 66 -19 61 -5 -9 22 10 201 22 213 6 6 40
9 79 7 87 -4 111 8 111 55 0 22 6 37 15 40 8 4 15 15 15 26 0 11 6 26 14 34 8
7 12 23 9 34 -4 16 0 20 23 22 16 0 36 1 44 2 21 1 19 11 -14 94 -28 70 -29
73 -12 109 9 21 22 73 29 116 12 72 12 82 -8 145 -27 85 -60 137 -122 192 -54
48 -123 82 -201 99 -65 14 -111 13 -182 -3z m-166 -2119 c83 -73 86 -78 85
-110 -1 -17 -4 -43 -8 -57 -7 -23 -8 -21 -15 17 -4 23 -5 47 -1 53 4 6 1 9 -7
8 -8 -2 -13 6 -12 19 1 26 -4 24 -20 -9 -14 -27 -53 -39 -43 -13 4 9 3 14 -2
10 -5 -3 -12 9 -16 27 -4 18 -15 51 -25 73 -10 22 -21 54 -25 70 -6 27 -3 25
31 -20 21 -27 47 -58 58 -68z"/>
<path d="M5220 3010 c0 -5 5 -10 11 -10 5 0 7 5 4 10 -3 6 -8 10 -11 10 -2 0
-4 -4 -4 -10z"/>
<path d="M5250 2990 c0 -5 7 -7 15 -4 8 4 15 8 15 10 0 2 -7 4 -15 4 -8 0 -15
-4 -15 -10z"/>
<path d="M4220 2950 c-9 -6 -10 -10 -3 -10 6 0 15 5 18 10 8 12 4 12 -15 0z"/>
<path d="M5360 2929 c0 -5 5 -7 10 -4 6 3 10 8 10 11 0 2 -4 4 -10 4 -5 0 -10
-5 -10 -11z"/>
<path d="M4460 2910 c-9 -6 -10 -10 -3 -10 6 0 15 5 18 10 8 12 4 12 -15 0z"/>
<path d="M3597 2819 c4 -13 8 -18 11 -10 2 7 -1 18 -6 23 -8 8 -9 4 -5 -13z"/>
<path d="M4125 2810 c-3 -5 -1 -10 4 -10 6 0 11 5 11 10 0 6 -2 10 -4 10 -3 0
-8 -4 -11 -10z"/>
<path d="M5665 2789 c-4 -6 -5 -12 -2 -15 2 -3 7 2 10 11 7 17 1 20 -8 4z"/>
<path d="M4156 2774 c-5 -14 -4 -15 9 -4 17 14 19 20 6 20 -5 0 -12 -7 -15
-16z"/>
<path d="M3490 2731 c0 -5 5 -13 10 -16 6 -3 10 -2 10 4 0 5 -4 13 -10 16 -5
3 -10 2 -10 -4z"/>
<path d="M5717 2713 c-4 -3 -7 -11 -7 -17 0 -6 5 -5 12 2 6 6 9 14 7 17 -3 3
-9 2 -12 -2z"/>
<path d="M4789 2692 c-11 -14 -11 -15 0 -5 7 6 20 9 27 6 8 -3 14 -3 14 0 0
14 -30 14 -41 -1z"/>
<path d="M4610 2658 c-74 -51 -90 -151 -36 -236 27 -43 220 -237 235 -237 18
0 205 181 237 230 63 94 52 190 -26 243 -30 21 -43 23 -95 19 -51 -5 -64 -10
-87 -36 -31 -34 -38 -38 -38 -17 0 8 -15 24 -34 35 -46 29 -113 28 -156 -1z
m138 -18 c19 -12 32 -28 32 -40 0 -11 5 -20 10 -20 6 0 10 6 10 13 0 9 2 9 9
-1 7 -11 9 -11 14 2 10 25 84 66 114 63 79 -9 125 -66 118 -147 -2 -25 -4 -49
-4 -53 -1 -5 -6 -5 -12 -1 -7 4 -10 1 -7 -7 6 -17 -50 -72 -64 -63 -6 4 -8 3
-4 -4 3 -6 -1 -17 -9 -25 -8 -9 -15 -20 -15 -25 0 -11 -30 -26 -45 -23 -5 2
-7 0 -3 -4 3 -4 -14 -27 -39 -51 -36 -36 -48 -42 -59 -33 -8 6 -14 20 -14 30
0 12 -7 19 -19 19 -11 0 -22 9 -26 19 -3 10 -14 21 -25 24 -10 3 -28 20 -39
38 -12 19 -21 30 -21 25 0 -5 -10 4 -22 20 -12 16 -26 32 -30 35 -5 3 -6 14
-2 25 5 16 4 16 -5 4 -6 -8 -11 -13 -12 -10 0 3 -2 14 -4 25 -2 11 -6 34 -10
52 -3 17 -1 34 5 38 6 4 7 -1 4 -12 -5 -15 -4 -16 5 -3 6 8 8 23 5 34 -4 12
-2 16 5 12 7 -5 8 -1 4 10 -4 11 -2 15 7 12 7 -2 23 6 36 19 28 28 68 29 112
3z"/>
<path d="M4751 2334 c0 -11 3 -14 6 -6 3 7 2 16 -1 19 -3 4 -6 -2 -5 -13z"/>
<path d="M4794 2305 c-3 -8 -4 -20 -2 -27 3 -7 7 -1 10 15 6 29 1 36 -8 12z"/>
<path d="M4556 2337 c3 -10 9 -15 12 -12 3 3 0 11 -7 18 -10 9 -11 8 -5 -6z"/>
<path d="M4991 2267 c-13 -21 -12 -21 5 -5 10 10 16 20 13 22 -3 3 -11 -5 -18
-17z"/>
<path d="M4125 2219 c-4 -6 -5 -12 -2 -15 2 -3 7 2 10 11 7 17 1 20 -8 4z"/>
<path d="M4710 2196 c0 -8 4 -17 9 -20 5 -4 7 3 4 14 -6 23 -13 26 -13 6z"/>
<path d="M5611 1954 c0 -11 3 -14 6 -6 3 7 2 16 -1 19 -3 4 -6 -2 -5 -13z"/>
<path d="M4576 1903 c-6 -14 -5 -15 5 -6 7 7 10 15 7 18 -3 3 -9 -2 -12 -12z"/>
<path d="M4071 1834 c0 -11 3 -14 6 -6 3 7 2 16 -1 19 -3 4 -6 -2 -5 -13z"/>
<path d="M3635 1810 c-4 -6 14 -10 47 -9 39 0 48 3 33 9 -28 12 -73 12 -80 0z"/>
<path d="M3821 1798 c0 -9 -8 -24 -17 -32 -8 -9 -11 -16 -6 -16 16 0 34 28 29
47 -4 16 -5 16 -6 1z"/>
<path d="M3978 1713 c7 -3 16 -2 19 1 4 3 -2 6 -13 5 -11 0 -14 -3 -6 -6z"/>
<path d="M5626 1693 c-6 -14 -5 -15 5 -6 7 7 10 15 7 18 -3 3 -9 -2 -12 -12z"/>
<path d="M3476 1645 c-3 -8 -1 -15 4 -15 13 0 22 18 11 24 -5 3 -11 -1 -15 -9z"/>
<path d="M3735 1607 c-164 -54 -229 -185 -191 -378 46 -226 243 -422 718 -712
15 -10 30 -17 33 -17 3 0 4 89 3 197 -2 141 -6 197 -15 200 -9 3 -11 -19 -9
-84 1 -48 -1 -100 -5 -115 -4 -15 -3 -30 2 -33 14 -9 11 -45 -6 -51 -13 -5
-13 -8 0 -21 15 -14 21 -53 8 -53 -14 0 -93 51 -93 60 0 6 -3 9 -7 8 -14 -3
-58 20 -80 41 -12 12 -26 21 -31 21 -4 0 -17 8 -28 19 -11 10 -32 25 -46 32
-28 15 -120 92 -178 149 -20 19 -46 41 -57 49 -13 8 -19 20 -15 29 3 10 1 13
-6 8 -7 -4 -15 -1 -18 8 -3 9 -12 16 -20 16 -13 0 -18 25 -15 70 0 10 -1 11
-5 3 -3 -7 -11 -13 -17 -13 -16 0 -49 59 -40 72 3 6 2 8 -4 5 -17 -11 -56 128
-54 198 2 90 9 122 34 162 28 44 85 93 108 93 8 0 20 5 26 11 18 18 201 14
232 -5 6 -4 9 -12 6 -17 -7 -11 2 -11 30 0 19 8 19 8 -4 21 -65 34 -192 48
-256 27z"/>
<path d="M4463 1595 c-3 -9 -3 -18 -1 -21 3 -3 8 4 11 16 6 23 -1 27 -10 5z"/>
<path d="M5581 1594 c0 -11 3 -14 6 -6 3 7 2 16 -1 19 -3 4 -6 -2 -5 -13z"/>
<path d="M4166 1592 c-2 -4 -1 -14 5 -22 12 -21 11 -33 -3 -24 -7 5 -8 3 -3
-6 6 -10 11 -9 23 6 14 18 14 18 9 -4 -3 -12 -1 -20 3 -17 5 3 25 -3 45 -14
33 -17 35 -20 18 -30 -10 -6 -13 -11 -7 -11 5 0 16 6 23 13 10 10 17 7 35 -14
12 -14 36 -32 54 -40 18 -8 32 -21 32 -29 0 -13 1 -13 10 0 9 13 10 13 11 0 1
-8 1 -18 0 -22 0 -4 6 -5 14 -2 17 7 105 -42 105 -57 0 -6 7 -9 15 -5 9 3 30
-8 50 -25 19 -17 35 -28 35 -25 0 4 6 2 13 -4 49 -41 61 -49 70 -43 6 4 8 0 4
-10 -4 -11 -2 -14 8 -11 8 3 26 -4 41 -15 15 -12 30 -21 35 -21 16 0 78 -48
71 -54 -3 -4 2 -4 12 0 14 5 17 4 12 -5 -6 -8 -2 -11 10 -9 12 2 18 -2 16 -11
-2 -8 3 -11 11 -8 19 7 38 -34 26 -55 -10 -18 7 -118 20 -118 5 0 19 -28 32
-62 22 -58 24 -81 27 -291 4 -250 0 -269 -54 -280 -28 -5 -114 21 -114 35 0 4
11 19 25 34 15 17 23 35 20 48 -2 11 -7 55 -10 95 -4 41 -9 79 -12 85 -3 5 -1
6 5 2 14 -9 15 -2 3 22 -14 27 -34 150 -27 168 3 8 3 26 0 39 -4 18 -16 25
-61 34 -31 6 -72 11 -92 11 -56 -1 -14 -20 61 -28 l62 -7 3 -45 c1 -25 9 -90
17 -145 8 -55 17 -136 20 -180 l4 -80 -31 -20 c-46 -29 -43 -59 6 -63 22 -2
37 -8 37 -16 0 -22 89 -29 118 -10 41 27 51 69 51 210 -1 278 -13 360 -74 474
-9 17 -12 45 -8 86 l5 61 -148 88 c-82 48 -183 109 -224 135 -260 165 -433
269 -440 265 -4 -3 -10 2 -13 9 -3 8 -1 17 6 20 9 3 9 5 0 5 -6 1 -14 -3 -17
-7z"/>
<path d="M5530 1560 c0 -5 5 -10 11 -10 5 0 7 5 4 10 -3 6 -8 10 -11 10 -2 0
-4 -4 -4 -10z"/>
<path d="M3773 1545 c-3 -9 -3 -18 -1 -21 3 -3 8 4 11 16 6 23 -1 27 -10 5z"/>
<path d="M5090 1541 c0 -6 4 -13 10 -16 6 -3 7 1 4 9 -7 18 -14 21 -14 7z"/>
<path d="M3930 1530 c-13 -8 -13 -10 2 -10 9 0 20 5 23 10 8 13 -5 13 -25 0z"/>
<path d="M4375 1530 c3 -5 8 -10 11 -10 2 0 4 5 4 10 0 6 -5 10 -11 10 -5 0
-7 -4 -4 -10z"/>
<path d="M3818 1493 c7 -3 16 -2 19 1 4 3 -2 6 -13 5 -11 0 -14 -3 -6 -6z"/>
<path d="M3622 1420 c0 -14 2 -19 5 -12 2 6 2 18 0 25 -3 6 -5 1 -5 -13z"/>
<path d="M5407 1359 c7 -7 15 -10 18 -7 3 3 -2 9 -12 12 -14 6 -15 5 -6 -5z"/>
<path d="M4890 1279 c0 -5 5 -7 10 -4 6 3 10 8 10 11 0 2 -4 4 -10 4 -5 0 -10
-5 -10 -11z"/>
<path d="M5330 1280 c-8 -5 -12 -12 -9 -15 4 -3 12 1 19 10 14 17 11 19 -10 5z"/>
<path d="M5350 1260 c0 -5 5 -10 10 -10 6 0 10 5 10 10 0 6 -4 10 -10 10 -5 0
-10 -4 -10 -10z"/>
<path d="M5016 1227 c3 -10 9 -15 12 -12 3 3 0 11 -7 18 -10 9 -11 8 -5 -6z"/>
<path d="M5276 1153 c-6 -14 -5 -15 5 -6 7 7 10 15 7 18 -3 3 -9 -2 -12 -12z"/>
<path d="M4745 1150 c-3 -5 -1 -10 4 -10 6 0 11 5 11 10 0 6 -2 10 -4 10 -3 0
-8 -4 -11 -10z"/>
<path d="M4397 959 c7 -7 15 -10 18 -7 3 3 -2 9 -12 12 -14 6 -15 5 -6 -5z"/>
<path d="M4275 930 c-18 -6 -17 -8 10 -13 63 -13 242 -39 295 -43 l55 -3 -75
20 c-41 12 -108 25 -149 29 -41 5 -84 11 -95 13 -12 3 -30 2 -41 -3z"/>
<path d="M5060 936 c0 -2 7 -7 16 -10 8 -3 12 -2 9 4 -6 10 -25 14 -25 6z"/>
<path d="M4247 891 c-4 -17 -3 -21 5 -13 5 5 8 16 6 23 -3 8 -7 3 -11 -10z"/>
<path d="M5055 900 c3 -5 8 -10 11 -10 2 0 4 5 4 10 0 6 -5 10 -11 10 -5 0 -7
-4 -4 -10z"/>
<path d="M4668 863 c7 -3 16 -2 19 1 4 3 -2 6 -13 5 -11 0 -14 -3 -6 -6z"/>
<path d="M4323 782 c20 -247 32 -332 44 -332 31 0 132 -56 144 -80 8 -14 14
-69 15 -130 l2 -104 62 -2 c52 -1 60 1 54 15 -18 45 -23 95 -18 181 4 68 3 91
-5 80 -6 -8 -11 -46 -11 -85 -1 -89 -16 -67 -22 33 -5 71 -5 72 19 72 36 0 93
33 140 82 51 53 64 85 64 161 1 41 5 60 15 64 8 3 14 10 14 15 0 7 -5 6 -13
-1 -11 -8 -18 -6 -33 10 -16 18 -93 59 -111 59 -3 0 0 -7 7 -15 7 -8 19 -15
27 -15 8 0 11 -5 8 -10 -4 -6 -1 -9 7 -8 7 2 12 -3 10 -10 -1 -8 2 -11 8 -7
38 23 59 -126 23 -163 -10 -10 -24 -30 -32 -45 -13 -25 -15 -25 -28 -9 -13 15
-13 15 -4 -5 14 -28 14 -33 -3 -33 -8 0 -16 -5 -18 -11 -2 -5 -10 -12 -18 -13
-8 -2 -34 -11 -58 -21 -48 -21 -57 -41 -47 -107 3 -24 8 -56 10 -72 3 -16 11
-39 20 -52 24 -37 20 -64 -10 -64 -30 0 -38 16 -40 79 -4 134 -4 135 -40 175
-20 21 -38 36 -41 33 -9 -9 -65 14 -58 24 3 5 -3 6 -12 2 -12 -4 -15 -3 -10 5
4 7 3 12 -2 12 -5 0 -12 39 -16 88 -4 48 -10 120 -14 160 -5 45 -4 76 2 79 5
4 57 8 115 9 58 2 114 3 124 3 10 1 15 6 12 11 -4 7 -59 10 -147 9 l-141 -1 6
-66z"/>
<path d="M3735 820 c-3 -5 1 -10 10 -10 9 0 13 5 10 10 -3 6 -8 10 -10 10 -2
0 -7 -4 -10 -10z"/>
<path d="M3743 629 l2 -174 -54 -125 c-29 -69 -60 -137 -67 -152 -8 -15 -14
-31 -14 -35 0 -3 155 -7 345 -7 l345 -1 0 162 c0 159 0 162 -22 168 -47 14
-201 95 -283 149 -27 18 -77 50 -110 71 -33 21 -79 56 -102 78 l-42 40 2 -174z
m74 79 c18 -13 33 -26 33 -30 0 -5 7 -8 15 -8 8 0 15 -4 15 -9 0 -5 14 -15 32
-22 18 -7 48 -27 67 -44 19 -16 35 -29 35 -28 2 6 46 -10 46 -17 0 -4 30 -22
67 -40 37 -19 77 -42 88 -52 11 -11 28 -17 37 -14 22 5 20 19 22 -146 l2 -138
-314 1 c-279 0 -313 2 -308 15 3 9 6 20 6 25 0 6 4 8 9 5 5 -3 9 0 8 7 -1 31
4 48 12 43 10 -6 25 24 16 32 -3 3 -5 -1 -5 -8 0 -7 -3 -11 -6 -8 -3 4 0 17 7
30 7 12 12 27 11 31 -1 5 2 6 8 2 5 -3 10 1 10 10 0 9 7 27 16 40 9 14 13 25
9 25 -4 0 -2 7 5 15 10 12 13 56 12 160 -1 80 1 145 5 145 4 0 22 -10 40 -22z"/>
<path d="M3803 639 c-2 -23 3 -25 10 -4 4 8 3 16 -1 19 -4 3 -9 -4 -9 -15z"/>
<path d="M3980 790 c-9 -6 -10 -10 -3 -10 6 0 15 5 18 10 8 12 4 12 -15 0z"/>
<path d="M4941 704 c0 -11 3 -14 6 -6 3 7 2 16 -1 19 -3 4 -6 -2 -5 -13z"/>
<path d="M4160 630 c20 -13 33 -13 25 0 -3 6 -14 10 -23 10 -15 0 -15 -2 -2
-10z"/>
<path d="M4830 605 c-8 -9 -8 -15 -2 -15 12 0 26 19 19 26 -2 2 -10 -2 -17
-11z"/>
<path d="M4480 495 c0 -8 4 -15 10 -15 5 0 7 7 4 15 -4 8 -8 15 -10 15 -2 0
-4 -7 -4 -15z"/>
<path d="M4520 460 c0 -5 5 -10 10 -10 6 0 10 5 10 10 0 6 -4 10 -10 10 -5 0
-10 -4 -10 -10z"/>
<path d="M4358 408 c-2 -6 -1 -37 3 -67 4 -31 10 -90 14 -131 l6 -76 60 1 c55
0 60 2 55 20 -3 11 -6 57 -6 102 0 72 -3 85 -22 103 -12 11 -30 20 -40 20 -10
0 -27 9 -38 20 -23 23 -27 24 -32 8z m98 -69 c7 -6 12 -43 13 -94 l1 -84 -35
1 c-31 1 -35 4 -35 28 0 15 -3 62 -6 104 l-7 77 29 -11 c15 -6 34 -16 40 -21z"/>
<path d="M4315 110 c3 -5 8 -10 11 -10 2 0 4 5 4 10 0 6 -5 10 -11 10 -5 0 -7
-4 -4 -10z"/>
</g>
</svg>
